<svg width="800" height="800" viewBox="0 0 64 64" xmlns="http://www.w3.org/2000/svg" aria-hidden="true" class="iconify iconify--emojione"><circle cx="32" cy="32" r="30" fill="#ed4c5c"/><path d="m22 28.4 8 5.6-3-9.2 8-5.8h-9.9L22 10l-3 9H9l8 5.8-3 9.2zm13.3 6.9-2.3.5 2.2.9V39l1.5-1.7 2.2.8-1.3-1.9 1.4-1.8-2.3.5-1.4-1.9zm3.4-6.8L37 30l2.3-.2 1 2.2.4-2.3 2.3-.2-2-1.2.5-2.3-1.7 1.5-2-1.2zm.6-7.8L40 23l.7-2.2H43l-1.8-1.4.7-2.3-1.9 1.4-1.8-1.5.7 2.3-1.9 1.3zm-4-8V15l1.4-1.9 2.3.5-1.4-1.8 1.3-1.9-2.2.9L35.2 9v2.3l-2.2.9z" fill="#ffe62e"/></svg>