<svg width="48" height="48" viewBox="0 0 48 48" fill="none" xmlns="http://www.w3.org/2000/svg"><path d="M19.5 45H3c-1.65 0-3-1.35-3-3V14.119c0-.431.094-.844.281-1.238.131-.319.338-.619.6-.881L12 .881c.262-.262.563-.469.881-.6A2.728 2.728 0 0 1 14.12 0H31.5c1.65 0 3 1.35 3 3v27c0 .825-.675 1.5-1.5 1.5s-1.5-.675-1.5-1.5V3H14.156c-.019.019-.037.019-.056.019L3.037 14.08c0 .019-.018.038-.018.056V42h16.5c.825 0 1.5.675 1.5 1.5S20.325 45 19.5 45Z" fill="#fff"/><path d="M12 15H1.65c-.825 0-1.5-.675-1.5-1.5S.825 12 1.65 12H12V1.65c0-.825.675-1.5 1.5-1.5s1.5.675 1.5 1.5V12c0 1.65-1.35 3-3 3ZM7.5 27c-.375 0-.769-.15-1.069-.431a1.505 1.505 0 0 1 0-2.119l7.5-7.5a1.505 1.505 0 0 1 2.119 0l3.431 3.431 6.431-6.431a1.505 1.505 0 0 1 2.12 0 1.505 1.505 0 0 1 0 2.119l-7.5 7.5a1.505 1.505 0 0 1-2.12 0L15 20.119 8.569 26.55c-.3.3-.694.45-1.069.45Zm0 9c-.825 0-1.5-.675-1.5-1.5v-3c0-.825.675-1.5 1.5-1.5s1.5.675 1.5 1.5v3c0 .825-.675 1.5-1.5 1.5Z" fill="#fff"/><path d="M13.5 36c-.825 0-1.5-.675-1.5-1.5V27c0-.825.675-1.5 1.5-1.5s1.5.675 1.5 1.5v7.5c0 .825-.675 1.5-1.5 1.5Zm6 0c-.825 0-1.5-.675-1.5-1.5v-6c0-.825.675-1.5 1.5-1.5s1.5.675 1.5 1.5v6c0 .825-.675 1.5-1.5 1.5Zm7.5 0c-.825 0-1.5-.675-1.5-1.5v-12c0-.825.675-1.5 1.5-1.5s1.5.675 1.5 1.5v12c0 .825-.675 1.5-1.5 1.5Zm19.5 6H36c-.825 0-1.5-.675-1.5-1.5S35.175 39 36 39h10.5c.825 0 1.5.675 1.5 1.5s-.675 1.5-1.5 1.5Z" fill="#fff"/><path d="M44.962 48H27.037A3.049 3.049 0 0 1 24 44.962v-2.925A3.049 3.049 0 0 1 27.038 39H34.5v-2.962A3.049 3.049 0 0 1 37.538 33h7.425A3.049 3.049 0 0 1 48 36.038v8.925A3.049 3.049 0 0 1 44.962 48ZM37.5 45h7.462a.04.04 0 0 0 .038-.038v-8.925a.04.04 0 0 0-.038-.037h-7.425a.04.04 0 0 0-.037.038V45Zm-10.462-3a.04.04 0 0 0-.038.038v2.925a.04.04 0 0 0 .038.037H34.5v-3h-7.462Z" fill="#fff"/></svg>