<svg width="58" height="51" viewBox="0 0 58 51" fill="none" xmlns="http://www.w3.org/2000/svg">
<path d="M52.1596 30.5763H35.9721C34.9829 30.5763 34.1735 29.7669 34.1735 28.7777C34.1735 27.7885 34.9829 26.9791 35.9721 26.9791H52.1596C53.1488 26.9791 53.9582 26.1697 53.9582 25.1805V12.5902H3.59721V25.1805C3.59721 26.1697 4.40659 26.9791 5.39582 26.9791H21.5833C22.5725 26.9791 23.3819 27.7885 23.3819 28.7777C23.3819 29.7669 22.5725 30.5763 21.5833 30.5763H5.39582C2.42812 30.5763 0 28.1482 0 25.1805V12.5902C0 10.6118 1.61875 8.99303 3.59721 8.99303H53.9582C55.9367 8.99303 57.5554 10.6118 57.5554 12.5902V25.1805C57.5554 28.1482 55.1273 30.5763 52.1596 30.5763Z" fill="white"/>
<path d="M34.1735 34.1735H23.3819C21.4034 34.1735 19.7847 32.5548 19.7847 30.5763V26.9791C19.7847 25.0006 21.4034 23.3819 23.3819 23.3819H34.1735C36.152 23.3819 37.7707 25.0006 37.7707 26.9791V30.5763C37.7707 32.5548 36.152 34.1735 34.1735 34.1735ZM23.3819 26.9791V30.5763H34.1735V26.9791H23.3819Z" fill="white"/>
<path d="M48.5624 50.361H8.99303C6.02533 50.361 3.59721 47.9329 3.59721 44.9652V28.7777C3.59721 27.7885 4.40659 26.9791 5.39582 26.9791C6.38505 26.9791 7.19442 27.7885 7.19442 28.7777V44.9652C7.19442 45.9544 8.0038 46.7638 8.99303 46.7638H48.5624C49.5516 46.7638 50.361 45.9544 50.361 44.9652V28.7777C50.361 27.7885 51.1703 26.9791 52.1596 26.9791C53.1488 26.9791 53.9582 27.7885 53.9582 28.7777V44.9652C53.9582 47.9329 51.5301 50.361 48.5624 50.361Z" fill="white"/>
<path d="M41.3679 12.5902C40.5361 12.5902 39.7717 12.0057 39.6143 11.1514L38.4002 5.05858C38.2429 4.22672 37.5009 3.61969 36.6466 3.61969H20.9313C20.0769 3.61969 19.335 4.22672 19.1776 5.05858L17.9636 11.1514C17.7612 12.1181 16.817 12.7476 15.8502 12.5678C14.8835 12.3654 14.254 11.4211 14.4338 10.4544L15.6479 4.36162C16.1425 1.82109 18.3683 0 20.9313 0H36.6241C39.1871 0 41.4129 1.82109 41.9075 4.33914L43.1216 10.4319C43.3239 11.3987 42.6944 12.3429 41.7052 12.5453C41.5928 12.5902 41.4804 12.5902 41.3679 12.5902Z" fill="white"/>
</svg>
