<svg width="55" height="55" viewBox="0 0 55 55" fill="none" xmlns="http://www.w3.org/2000/svg">
<g clip-path="url(#clip0_1281_17)">
<path d="M35.0654 27.5001C36.8665 26.0987 38.0286 23.9126 38.0286 21.4592C38.0286 17.7419 35.3635 14.6366 31.844 13.95V11.9668C31.844 11.0769 31.1226 10.3555 30.2327 10.3555C29.3428 10.3555 28.6214 11.0769 28.6214 11.9668V13.8073H27.3563H23.2145V11.9668C23.2145 11.0769 22.4931 10.3555 21.6032 10.3555C20.7133 10.3555 19.9918 11.0769 19.9918 11.9668V13.8073H18.5828C17.6929 13.8073 16.9715 14.5287 16.9715 15.4186C16.9715 16.3085 17.6929 17.0299 18.5828 17.0299H19.9918V27.5V37.9701H18.5828C17.6929 37.9701 16.9715 38.6915 16.9715 39.5814C16.9715 40.4713 17.6929 41.1927 18.5828 41.1927H19.9918V43.0332C19.9918 43.9231 20.7133 44.6445 21.6032 44.6445C22.4931 44.6445 23.2145 43.9231 23.2145 43.0332V41.1927H27.3563H28.6214V43.0332C28.6214 43.9231 29.3428 44.6445 30.2327 44.6445C31.1226 44.6445 31.844 43.9231 31.844 43.0332V41.0501C35.3636 40.3634 38.0286 37.258 38.0286 33.5407C38.0286 31.0871 36.8665 28.9013 35.0654 27.5001ZM23.2144 25.8886V17.0299H27.3561H30.3765C32.8189 17.0299 34.8059 19.0169 34.8059 21.4591C34.8059 23.9015 32.8189 25.8886 30.3765 25.8886H23.2144ZM30.3766 37.97H27.3563H23.2145V29.1113H30.3766C32.819 29.1113 34.806 31.0983 34.806 33.5405C34.806 35.9829 32.819 37.97 30.3766 37.97Z" fill="white"/>
<path d="M46.9454 8.05449C41.7513 2.86054 34.8455 0 27.5 0C20.1545 0 13.2486 2.86054 8.05449 8.05449C2.86054 13.2487 0 20.1545 0 27.5C0 34.8456 2.86054 41.7514 8.05449 46.9455C13.2486 52.1395 20.1545 55 27.5 55C34.8455 55 41.7513 52.1395 46.9454 46.9455C52.1395 41.7514 55 34.8456 55 27.5C55 20.1545 52.1395 13.2487 46.9454 8.05449ZM27.5 51.7773C14.1134 51.7773 3.22266 40.8866 3.22266 27.5C3.22266 14.1134 14.1134 3.22266 27.5 3.22266C40.8866 3.22266 51.7773 14.1134 51.7773 27.5C51.7773 40.8866 40.8866 51.7773 27.5 51.7773Z" fill="white"/>
</g>
<defs>
<clipPath id="clip0_1281_17">
<rect width="55" height="55" fill="white"/>
</clipPath>
</defs>
</svg>
