<svg width="48" height="48" viewBox="0 0 48 48" fill="none" xmlns="http://www.w3.org/2000/svg">
<path d="M19.5 45H3C1.35 45 0 43.65 0 42V14.1188C0 13.6875 0.09375 13.275 0.28125 12.8812C0.4125 12.5625 0.61875 12.2625 0.88125 12L12 0.88125C12.2625 0.61875 12.5625 0.4125 12.8812 0.28125C13.2562 0.09375 13.6688 0 14.1188 0H31.5C33.15 0 34.5 1.35 34.5 3V30C34.5 30.825 33.825 31.5 33 31.5C32.175 31.5 31.5 30.825 31.5 30V3H14.1562C14.1375 3.01875 14.1187 3.01875 14.1 3.01875L3.0375 14.0812C3.0375 14.1 3.01875 14.1188 3.01875 14.1375V42H19.5187C20.3438 42 21.0187 42.675 21.0187 43.5C21.0187 44.325 20.325 45 19.5 45Z" fill="white"/>
<path d="M12 15H1.65C0.825 15 0.15 14.325 0.15 13.5C0.15 12.675 0.825 12 1.65 12H12V1.65C12 0.825 12.675 0.15 13.5 0.15C14.325 0.15 15 0.825 15 1.65V12C15 13.65 13.65 15 12 15Z" fill="white"/>
<path d="M7.5 27C7.125 27 6.73125 26.85 6.43125 26.5687C5.85 25.9875 5.85 25.0312 6.43125 24.45L13.9313 16.95C14.5125 16.3688 15.4688 16.3688 16.05 16.95L19.4813 20.3812L25.9125 13.95C26.4937 13.3688 27.45 13.3688 28.0312 13.95C28.6125 14.5312 28.6125 15.4875 28.0312 16.0687L20.5312 23.5687C19.95 24.15 18.9937 24.15 18.4125 23.5687L15 20.1188L8.56875 26.55C8.26875 26.85 7.875 27 7.5 27Z" fill="white"/>
<path d="M7.5 36C6.675 36 6 35.325 6 34.5V31.5C6 30.675 6.675 30 7.5 30C8.325 30 9 30.675 9 31.5V34.5C9 35.325 8.325 36 7.5 36Z" fill="white"/>
<path d="M13.5 36C12.675 36 12 35.325 12 34.5V27C12 26.175 12.675 25.5 13.5 25.5C14.325 25.5 15 26.175 15 27V34.5C15 35.325 14.325 36 13.5 36Z" fill="white"/>
<path d="M19.5 36C18.675 36 18 35.325 18 34.5V28.5C18 27.675 18.675 27 19.5 27C20.325 27 21 27.675 21 28.5V34.5C21 35.325 20.325 36 19.5 36Z" fill="white"/>
<path d="M27 36C26.175 36 25.5 35.325 25.5 34.5V22.5C25.5 21.675 26.175 21 27 21C27.825 21 28.5 21.675 28.5 22.5V34.5C28.5 35.325 27.825 36 27 36Z" fill="white"/>
<path d="M46.5 42H36C35.175 42 34.5 41.325 34.5 40.5C34.5 39.675 35.175 39 36 39H46.5C47.325 39 48 39.675 48 40.5C48 41.325 47.325 42 46.5 42Z" fill="white"/>
<path d="M44.9625 48H27.0375C25.3687 48 24 46.6313 24 44.9625V42.0375C24 40.3687 25.3687 39 27.0375 39H34.5V36.0375C34.5 34.3687 35.8687 33 37.5375 33H44.9625C46.6313 33 48 34.3687 48 36.0375V44.9625C48 46.6313 46.6313 48 44.9625 48ZM37.5 45H44.9625C44.9813 45 45 44.9813 45 44.9625V36.0375C45 36.0187 44.9813 36 44.9625 36H37.5375C37.5187 36 37.5 36.0187 37.5 36.0375V45ZM27.0375 42C27.0187 42 27 42.0187 27 42.0375V44.9625C27 44.9813 27.0187 45 27.0375 45H34.5V42H27.0375Z" fill="white"/>
</svg>
