<svg width="58" height="51" viewBox="0 0 58 51" fill="none" xmlns="http://www.w3.org/2000/svg"><path d="M52.16 30.576H35.972c-.99 0-1.799-.81-1.799-1.798 0-.99.81-1.799 1.8-1.799H52.16c.989 0 1.798-.81 1.798-1.799V12.59H3.598v12.59c0 .99.809 1.8 1.798 1.8h16.187c.99 0 1.799.808 1.799 1.798 0 .989-.81 1.798-1.799 1.798H5.396C2.428 30.576 0 28.148 0 25.18V12.59a3.608 3.608 0 0 1 3.597-3.597h50.361a3.608 3.608 0 0 1 3.597 3.597v12.59c0 2.968-2.428 5.396-5.395 5.396Z" fill="#fff"/><path d="M34.173 34.173H23.382a3.608 3.608 0 0 1-3.597-3.597V26.98a3.608 3.608 0 0 1 3.597-3.597h10.791a3.608 3.608 0 0 1 3.598 3.597v3.597a3.608 3.608 0 0 1-3.598 3.597ZM23.382 26.98v3.597h10.791V26.98H23.382Z" fill="#fff"/><path d="M48.562 50.361H8.993c-2.968 0-5.396-2.428-5.396-5.396V28.778c0-.99.81-1.799 1.799-1.799.989 0 1.798.81 1.798 1.799v16.187c0 .99.81 1.799 1.799 1.799h39.57c.989 0 1.798-.81 1.798-1.799V28.778c0-.99.81-1.799 1.799-1.799.989 0 1.798.81 1.798 1.799v16.187c0 2.968-2.428 5.396-5.396 5.396ZM41.368 12.59c-.832 0-1.596-.584-1.754-1.439L38.4 5.06a1.784 1.784 0 0 0-1.753-1.44H20.93c-.854 0-1.596.608-1.753 1.44l-1.214 6.092a1.824 1.824 0 0 1-2.114 1.417 1.824 1.824 0 0 1-1.416-2.114l1.214-6.092A5.39 5.39 0 0 1 20.93 0h15.693a5.392 5.392 0 0 1 5.283 4.34l1.215 6.092c.202.967-.428 1.91-1.417 2.113-.112.045-.225.045-.337.045Z" fill="#fff"/></svg>