<svg width="55" height="55" viewBox="0 0 55 55" fill="none" xmlns="http://www.w3.org/2000/svg"><g clip-path="url(#a)" fill="#fff"><path d="M35.065 27.5a7.642 7.642 0 0 0 2.964-6.04c0-3.718-2.666-6.823-6.185-7.51v-1.983a1.611 1.611 0 1 0-3.223 0v1.84h-5.407v-1.84a1.611 1.611 0 1 0-3.222 0v1.84h-1.41a1.611 1.611 0 1 0 0 3.223h1.41v20.94h-1.41a1.611 1.611 0 1 0 0 3.223h1.41v1.84a1.611 1.611 0 0 0 3.223 0v-1.84h5.406v1.84a1.611 1.611 0 1 0 3.223 0V41.05c3.52-.687 6.185-3.792 6.185-7.51a7.641 7.641 0 0 0-2.964-6.04Zm-11.85-1.611v-8.86h7.161a4.434 4.434 0 0 1 4.43 4.43 4.434 4.434 0 0 1-4.43 4.43h-7.162Zm7.162 12.081h-7.162v-8.859h7.162a4.434 4.434 0 0 1 4.429 4.43 4.434 4.434 0 0 1-4.43 4.429Z"/><path d="M46.945 8.054C41.751 2.861 34.845 0 27.5 0 20.154 0 13.249 2.86 8.054 8.054 2.861 13.25 0 20.154 0 27.5c0 7.346 2.86 14.251 8.054 19.446C13.25 52.14 20.154 55 27.5 55c7.346 0 14.251-2.86 19.445-8.054C52.14 41.75 55 34.846 55 27.5c0-7.346-2.86-14.251-8.055-19.446ZM27.5 51.777c-13.387 0-24.277-10.89-24.277-24.277S14.113 3.223 27.5 3.223 51.777 14.113 51.777 27.5 40.887 51.777 27.5 51.777Z"/></g><defs><clipPath id="a"><path fill="#fff" d="M0 0h55v55H0z"/></clipPath></defs></svg>