<svg width="50" height="50" viewBox="0 0 50 50" fill="none" xmlns="http://www.w3.org/2000/svg">
<path d="M2.14286 0.5C2.37263 0.5 2.58646 0.538887 2.78878 0.628807C2.98894 0.717766 3.15261 0.845501 3.29641 0.989304L46.2143 43.9072V5.57143C46.2143 5.11495 46.3686 4.69569 46.675 4.38931C46.9814 4.08292 47.4007 3.92857 47.8571 3.92857C48.3136 3.92857 48.7329 4.08292 49.0393 4.38931C49.3457 4.69569 49.5 5.11495 49.5 5.57143V47.8571C49.5 48.3136 49.3457 48.7329 49.0393 49.0393C48.7329 49.3457 48.3136 49.5 47.8571 49.5H5.57143C5.11495 49.5 4.69569 49.3457 4.3893 49.0393C4.08291 48.7329 3.92857 48.3136 3.92857 47.8571C3.92857 47.4007 4.08291 46.9814 4.3893 46.675C4.69569 46.3686 5.11495 46.2143 5.57143 46.2143H43.9072L0.989304 3.29641C0.336899 2.64401 0.336899 1.64171 0.989304 0.989304C1.13311 0.845501 1.29678 0.717766 1.49693 0.628807C1.69926 0.538887 1.91309 0.5 2.14286 0.5Z" fill="#00114F" stroke="#00114F"/>
</svg>
