<svg width="41" height="41" viewBox="0 0 41 41" fill="none" xmlns="http://www.w3.org/2000/svg">
<path d="M1.73836 40.9205C2.02564 40.9205 2.21717 40.8247 2.40869 40.6332L39.0849 3.95702V37.0901C39.0849 37.6646 39.4679 38.0477 40.0424 38.0477C40.617 38.0477 41.0001 37.6646 41.0001 37.0901V1.65877C41.0001 1.08421 40.617 0.701172 40.0424 0.701172L4.61117 0.701172C4.03661 0.701172 3.65357 1.08421 3.65357 1.65877C3.65357 2.23334 4.03661 2.61638 4.61117 2.61638L37.7442 2.61638L1.06804 39.2925C0.685001 39.6756 0.685001 40.2501 1.06804 40.6332C1.25956 40.8247 1.45108 40.9205 1.73836 40.9205Z" fill="#00114F"/>
</svg>
