<svg width="28" height="28" viewBox="0 0 28 28" fill="none" xmlns="http://www.w3.org/2000/svg">
<path d="M26.6825 11.1528L20.0487 5.55549C19.7607 5.30787 19.3231 5.34818 19.0755 5.63611C18.8279 5.92979 18.8682 6.36168 19.1561 6.6093L25.8129 12.2526C25.8072 12.2699 25.7784 12.316 25.6805 12.316H1.99571C1.89781 12.316 1.87478 12.2699 1.8863 12.2066L13.7316 2.21555C13.7892 2.16948 13.8928 2.16948 13.9504 2.21555L15.701 3.68973C15.9947 3.93734 16.4266 3.89703 16.6742 3.60911C16.9218 3.31542 16.8815 2.88353 16.5936 2.63592L14.8372 1.16174C14.2671 0.678021 13.4091 0.678021 12.839 1.16174L0.999485 11.1528C0.533045 11.5443 0.366048 12.1663 0.567596 12.7248C0.780661 13.318 1.345 13.698 1.99571 13.698H3.93633V19.9172C3.93633 20.2973 4.24729 20.6083 4.62735 20.6083C5.00741 20.6083 5.31837 20.2973 5.31837 19.9172V13.698H8.54315V19.9172C8.54315 20.2973 8.8541 20.6083 9.23417 20.6083C9.61423 20.6083 9.92519 20.2973 9.92519 19.9172V13.698H13.15V19.9172C13.15 20.2973 13.4609 20.6083 13.841 20.6083C14.221 20.6083 14.532 20.2973 14.532 19.9172V13.698H17.7568V19.9172C17.7568 20.2973 18.0677 20.6083 18.4478 20.6083C18.8279 20.6083 19.1388 20.2973 19.1388 19.9172V13.698H22.3636V19.9172C22.3636 20.2973 22.6746 20.6083 23.0546 20.6083C23.4347 20.6083 23.7456 20.2973 23.7456 19.9172V13.698H25.6863C26.337 13.698 26.9013 13.318 27.1144 12.7248C27.3217 12.1605 27.1489 11.5443 26.6825 11.1528Z" fill="white"/>
<path d="M25.358 22.6813H2.32394C1.94388 22.6813 1.63292 22.9923 1.63292 23.3723V26.8275C1.63292 27.2075 1.94388 27.5185 2.32394 27.5185H4.62735C5.00741 27.5185 5.31837 27.2075 5.31837 26.8275C5.31837 26.4474 5.00741 26.1364 4.62735 26.1364H3.01497V24.0634H24.667V26.1364H9.23417C8.8541 26.1364 8.54315 26.4474 8.54315 26.8275C8.54315 27.2075 8.8541 27.5185 9.23417 27.5185H25.358C25.7381 27.5185 26.049 27.2075 26.049 26.8275V23.3723C26.049 22.9923 25.7381 22.6813 25.358 22.6813Z" fill="white"/>
</svg>
