<svg width="24" height="23" viewBox="0 0 24 23" fill="none" xmlns="http://www.w3.org/2000/svg">
<path d="M8.20994 4.63095V1.75466C8.20994 1.1794 8.59345 0.795898 9.16871 0.795898H14.9213C15.4966 0.795898 15.8801 1.1794 15.8801 1.75466V4.63095M9.16871 14.2186H1.4986V5.58972C1.4986 5.01446 1.8821 4.63095 2.45736 4.63095H21.6326C22.2079 4.63095 22.5914 5.01446 22.5914 5.58972V14.2186H14.9213M21.6326 17.0949V20.9299C21.6326 21.5052 21.2491 21.8887 20.6739 21.8887H3.41612C2.84087 21.8887 2.45736 21.5052 2.45736 20.9299V17.0949M9.16871 12.3011H14.9213V16.1361H9.16871V12.3011Z" stroke="white" stroke-width="1.51399" stroke-miterlimit="10" stroke-linecap="round" stroke-linejoin="round"/>
</svg>
