<svg width="38" height="38" viewBox="0 0 38 38" fill="none" xmlns="http://www.w3.org/2000/svg">
<path d="M1.85714 37.4999C2.04406 37.4999 2.22217 37.4682 2.39236 37.3925C2.56037 37.3179 2.69547 37.2115 2.8107 37.0963L34.7857 5.1213V33.5713C34.7857 33.9421 34.9115 34.2899 35.1679 34.5463C35.4243 34.8027 35.7721 34.9285 36.1429 34.9285C36.5136 34.9285 36.8615 34.8027 37.1178 34.5463C37.3742 34.2899 37.5 33.9421 37.5 33.5713V1.85705C37.5 1.48628 37.3742 1.13846 37.1178 0.882069C36.8615 0.62568 36.5136 0.499908 36.1429 0.499908H4.42857C4.0578 0.499908 3.70998 0.62568 3.45359 0.882069C3.1972 1.13846 3.07143 1.48628 3.07143 1.85705C3.07143 2.22782 3.1972 2.57564 3.45359 2.83203C3.70998 3.08842 4.0578 3.21419 4.42857 3.21419H32.8786L0.903589 35.1892C0.36547 35.7273 0.36547 36.5582 0.903589 37.0963C1.01882 37.2115 1.15392 37.3179 1.32193 37.3925C1.49211 37.4682 1.67023 37.4999 1.85714 37.4999Z" fill="white" stroke="white"/>
</svg>
