<?xml version="1.0" encoding="utf-8"?><svg viewBox="0 0 52 52" xmlns="http://www.w3.org/2000/svg" xmlns:xlink="http://www.w3.org/1999/xlink"><style>:root>svg{display:none}:root>svg:target{display:block}</style><svg fill="none" viewBox="-1 -1 25 24" id="image-arrow-white-down-45" xmlns="http://www.w3.org/2000/svg"><path d="M.642 1.476c0 .13.022.26.079.388a.992.992 0 00.21.299l17.385 17.384H3.046a.975.975 0 00-.698.278.975.975 0 00-.277.699c0 .256.087.509.277.698.19.19.442.278.699.278h17.619c.256 0 .509-.088.699-.277a.975.975 0 00.277-.7V2.906a.975.975 0 00-.277-.7.975.975 0 00-.7-.277.975.975 0 00-.698.278.975.975 0 00-.277.699v15.269L2.305.789a.96.96 0 00-1.374 0l.354.354L.931.789a.992.992 0 00-.21.3.942.942 0 00-.079.387z" fill="#fff" stroke="#fff"/></svg><svg fill="none" viewBox="-1 -1 52 52" id="image-git-arrow" xmlns="http://www.w3.org/2000/svg"><path d="M2.143.5c.23 0 .443.039.646.129.2.089.364.217.507.36l42.918 42.918V5.571c0-.456.155-.875.461-1.182.306-.306.726-.46 1.182-.46.457 0 .876.154 1.182.46.307.307.461.726.461 1.182v42.286c0 .457-.154.876-.46 1.182-.307.307-.726.461-1.183.461H5.571c-.456 0-.875-.154-1.182-.46-.306-.307-.46-.726-.46-1.183 0-.456.154-.876.46-1.182.307-.306.726-.46 1.182-.46h38.336L.99 3.295A1.604 1.604 0 01.99.99c.144-.143.308-.271.508-.36.202-.09.416-.129.646-.129z" fill="#00114F" stroke="#00114F"/></svg><svg fill="none" viewBox="-1 -1 43 43" id="image-ic-arrow" xmlns="http://www.w3.org/2000/svg"><path d="M1.738 40.92c.288 0 .48-.095.67-.287L39.086 3.957V37.09c0 .575.383.958.957.958.575 0 .958-.383.958-.958V1.66c0-.575-.383-.958-.958-.958H4.612c-.575 0-.958.383-.958.958 0 .574.383.957.957.957h33.133L1.068 39.292a.926.926 0 000 1.341c.192.192.383.287.67.287z" fill="#00114F"/></svg><svg fill="none" viewBox="-1 -1 28 28" id="image-info-icon1" xmlns="http://www.w3.org/2000/svg"><path d="M11.315 4.398c-5.948 0-10.686 5.142-9.98 11.19.504 4.637 4.233 8.367 8.87 8.871 6.05.706 11.19-4.032 11.19-9.98h-10.08V4.4z" stroke="#fff" stroke-width="1.514" stroke-miterlimit="10" stroke-linecap="round" stroke-linejoin="round"/><path d="M14.339 11.455h10.08c0-5.545-4.536-10.081-10.08-10.081v10.081z" stroke="#fff" stroke-width="1.514" stroke-miterlimit="10" stroke-linecap="round" stroke-linejoin="round"/></svg><svg fill="none" viewBox="-1 -1 26 25" id="image-info-icon2" xmlns="http://www.w3.org/2000/svg"><path d="M8.21 4.631V1.755c0-.576.383-.96.959-.96h5.752c.576 0 .96.384.96.96V4.63m-6.712 9.588h-7.67v-8.63c0-.575.383-.958.958-.958h19.176c.575 0 .958.383.958.959v8.629h-7.67m6.712 2.876v3.835c0 .575-.384.959-.96.959H3.417c-.575 0-.959-.384-.959-.96v-3.834M9.17 12.3h5.752v3.835H9.17v-3.835z" stroke="#fff" stroke-width="1.514" stroke-miterlimit="10" stroke-linecap="round" stroke-linejoin="round"/></svg><svg fill="none" viewBox="-1 -1 30 30" id="image-info-icon3" xmlns="http://www.w3.org/2000/svg"><path d="M26.683 11.153l-6.634-5.598a.693.693 0 00-.973.081.692.692 0 00.08.973l6.657 5.644c-.006.017-.035.063-.133.063H1.996c-.098 0-.121-.046-.11-.11l11.846-9.99a.19.19 0 01.218 0l1.751 1.474a.692.692 0 00.973-.08.692.692 0 00-.08-.974l-1.757-1.474a1.557 1.557 0 00-1.998 0l-11.84 9.99a1.416 1.416 0 00-.431 1.573c.213.593.777.973 1.428.973h1.94v6.22c0 .38.311.69.691.69.38 0 .691-.31.691-.69v-6.22h3.225v6.22c0 .38.311.69.691.69.38 0 .691-.31.691-.69v-6.22h3.225v6.22c0 .38.31.69.691.69.38 0 .691-.31.691-.69v-6.22h3.225v6.22c0 .38.31.69.69.69.38 0 .692-.31.692-.69v-6.22h3.225v6.22c0 .38.31.69.69.69.38 0 .692-.31.692-.69v-6.22h1.94c.651 0 1.215-.38 1.428-.973a1.404 1.404 0 00-.431-1.572zM25.358 22.681H2.324a.693.693 0 00-.691.691v3.456c0 .38.31.69.69.69h2.304c.38 0 .691-.31.691-.69a.693.693 0 00-.69-.692H3.014v-2.073h21.652v2.073H9.234a.693.693 0 00-.69.692c0 .38.31.69.69.69h16.124c.38 0 .691-.31.691-.69v-3.456c0-.38-.31-.69-.691-.69z" fill="#fff"/></svg><svg fill="none" viewBox="-1 -1 40 40" id="image-intro-arrow-up-45-white" xmlns="http://www.w3.org/2000/svg"><path d="M1.857 37.5c.187 0 .365-.032.535-.108.168-.074.303-.18.419-.296L34.786 5.121v28.45c0 .371.125.719.382.975.256.257.604.383.975.383.37 0 .718-.126.975-.383.256-.256.382-.604.382-.975V1.857c0-.37-.126-.719-.382-.975A1.356 1.356 0 0036.143.5H4.429c-.371 0-.719.126-.975.382a1.356 1.356 0 00-.383.975c0 .37.126.719.383.975.256.256.604.382.975.382h28.45L.904 35.19a1.328 1.328 0 000 1.907c.115.116.25.222.418.297.17.075.348.107.535.107z" fill="#fff" stroke="#fff"/></svg></svg>