<svg width="23" height="22" viewBox="0 0 23 22" fill="none" xmlns="http://www.w3.org/2000/svg">
<path d="M0.64209 1.4761C0.64209 1.60587 0.664309 1.73636 0.720898 1.86369C0.776522 1.98884 0.854256 2.08585 0.931393 2.16298L18.3159 19.5475L3.04685 19.5475C2.79037 19.5475 2.53778 19.6352 2.34806 19.8249C2.15834 20.0146 2.07066 20.2672 2.07066 20.5237C2.07066 20.7802 2.15834 21.0328 2.34806 21.2225C2.53778 21.4122 2.79037 21.4999 3.04685 21.4999L20.6659 21.4999C20.9224 21.4999 21.175 21.4122 21.3647 21.2225C21.5544 21.0328 21.6421 20.7802 21.6421 20.5237L21.6421 2.90467C21.6421 2.64819 21.5544 2.3956 21.3647 2.20588C21.175 2.01616 20.9224 1.92848 20.6659 1.92848C20.4094 1.92848 20.1568 2.01616 19.9671 2.20588C19.7774 2.3956 19.6897 2.64819 19.6897 2.90467L19.6897 18.1738L2.30517 0.789211C1.91943 0.403472 1.31713 0.403474 0.931395 0.78921L1.28495 1.14276L0.931393 0.789212C0.854256 0.866348 0.776522 0.963352 0.720898 1.08851C0.664309 1.21583 0.64209 1.34633 0.64209 1.4761Z" fill="white" stroke="white"/>
</svg>
