<svg width="28" height="28" viewBox="0 0 28 28" fill="none" xmlns="http://www.w3.org/2000/svg">
<path d="M1.61905 27.5C1.77025 27.5 1.9186 27.4742 2.062 27.4105C2.20322 27.3477 2.31451 27.2593 2.40593 27.1678L25.2619 4.31187V24.5238C25.2619 24.8231 25.3639 25.1114 25.5786 25.3262C25.7933 25.5409 26.0816 25.6429 26.381 25.6429C26.6803 25.6429 26.9686 25.5409 27.1833 25.3262C27.398 25.1115 27.5 24.8231 27.5 24.5238V1.61905C27.5 1.31971 27.398 1.03141 27.1833 0.816684C26.9686 0.601962 26.6803 0.5 26.381 0.5H3.47619C3.17685 0.5 2.88855 0.601962 2.67383 0.816685C2.4591 1.03141 2.35714 1.31971 2.35714 1.61905C2.35714 1.91839 2.4591 2.20669 2.67383 2.42141C2.88855 2.63613 3.17685 2.7381 3.47619 2.7381H23.6881L0.832161 25.5941C0.389279 26.0369 0.389281 26.725 0.83216 27.1678C0.923582 27.2593 1.03487 27.3477 1.1761 27.4105C1.31949 27.4742 1.46785 27.5 1.61905 27.5Z" fill="white" stroke="white"/>
</svg>
