<svg xmlns="http://www.w3.org/2000/svg" xmlns:xlink="http://www.w3.org/1999/xlink" width="31" height="36" viewBox="0 0 31 36"><defs><path id="6hb3a" d="M842.15 2924.143a.726.726 0 0 1-1.023 0l-4.335-4.334a.727.727 0 0 1-.211-.511v-10.113a.723.723 0 0 1 1.445 0V2919l4.124 4.122a.723.723 0 0 1 0 1.022zm-4.846-20.026c.242 0 .483.005.722.017v-2.898h-1.445v2.898c.24-.012.48-.017.723-.017zm15.173 15.182c0 8.367-6.806 15.173-15.173 15.173-8.368 0-15.174-6.806-15.174-15.173 0-7.631 5.662-13.965 13.006-15.02v-3.044h-.723a.723.723 0 0 1 0-1.445h5.78a.723.723 0 0 1 0 1.445h-.722v3.045a15.084 15.084 0 0 1 6.346 2.464l1.747-2.33a.722.722 0 1 1 1.156.867l-1.748 2.331c3.36 2.786 5.505 6.99 5.505 11.687zm-1.445 0c0-7.568-6.159-13.727-13.728-13.727-7.57 0-13.729 6.159-13.729 13.727 0 7.57 6.16 13.728 13.729 13.728 7.569 0 13.728-6.159 13.728-13.728z"/></defs><g><g transform="translate(-822 -2899)"><use xlink:href="#6hb3a"/></g></g></svg>