<?xml version="1.0" encoding="UTF-8"?>
<svg width="22px" height="22px" viewBox="0 0 22 22" version="1.1" xmlns="http://www.w3.org/2000/svg" xmlns:xlink="http://www.w3.org/1999/xlink">
    <!-- Generator: Sketch 52.3 (67297) - http://www.bohemiancoding.com/sketch -->
    <title>Combined Shape</title>
    <desc>Created with Sketch.</desc>
    <g id="00-Screens" stroke="none" stroke-width="1" fill="none" fill-rule="evenodd">
        <g id="03-Desktop-v4" transform="translate(-1110.000000, -521.000000)" fill="#FF0000">
            <g id="Group-24" transform="translate(390.000000, 175.000000)">
                <g id="Group-21" transform="translate(682.000000, 0.000000)">
                    <g id="Group-4" transform="translate(0.000000, 332.000000)">
                        <g id="Group-4-Copy-2" transform="translate(24.000000, 0.000000)">
                            <path d="M35.0840816,23.9044898 C35.5914286,23.9044898 36,24.3130612 36,24.8204082 L36,35.0840816 C36,35.5914286 35.5914286,36 35.0840816,36 L14.9159184,36 C14.4085714,36 14,35.5914286 14,35.0840816 L14,24.8204082 C14,24.3130612 14.4085714,23.9044898 14.9159184,23.9044898 L35.0840816,23.9044898 Z M24.405102,30.6795918 L25.6061224,30.6795918 C26.4891201,30.6795918 27.1850315,30.4663287 27.6938776,30.0397959 C28.2027236,29.6132632 28.4571429,29.0295955 28.4571429,28.2887755 C28.4571429,27.8173446 28.3430284,27.4039133 28.1147959,27.0484694 C27.8865635,26.6930254 27.5629273,26.4198989 27.1438776,26.2290816 C26.7248278,26.0382644 26.2346967,25.9428571 25.6734694,25.9428571 L23.0244898,25.9428571 L23.0244898,29.7255102 L22.1714286,29.7255102 L22.1714286,30.6795918 L23.0244898,30.6795918 L23.0244898,31.5663265 L22.1714286,31.5663265 L22.1714286,32.2622449 L23.0244898,32.2622449 L23.0244898,33.7438776 L24.405102,33.7438776 L24.405102,32.2622449 L26.0887755,32.2622449 L26.0887755,31.5663265 L24.405102,31.5663265 L24.405102,30.6795918 Z M24.405102,29.7255102 L24.405102,27.0204082 L25.4714286,27.0204082 C25.9353765,27.0204082 26.3039102,27.1401349 26.5770408,27.3795918 C26.8501714,27.6190488 26.9867347,27.9445558 26.9867347,28.3561224 C26.9867347,28.7826552 26.8520422,29.1175158 26.5826531,29.3607143 C26.313264,29.6039128 25.9428595,29.7255102 25.4714286,29.7255102 L24.405102,29.7255102 Z M32.677551,20.644898 C33.184898,20.644898 33.5934694,21.0579592 33.5934694,21.5608163 C33.5934694,22.0681633 33.184898,22.4767347 32.677551,22.4767347 L17.322449,22.4767347 C16.815102,22.4767347 16.4065306,22.0681633 16.4065306,21.5608163 C16.4065306,21.0534694 16.815102,20.644898 17.322449,20.644898 L32.677551,20.644898 Z M20.0746939,19.1542857 C19.5673469,19.1542857 19.1542857,18.7457143 19.1587755,18.2383673 C19.1587755,17.7310204 19.5673469,17.322449 20.0746939,17.322449 L29.9297959,17.322449 C30.4371429,17.322449 30.8457143,17.7310204 30.8457143,18.2383673 C30.8457143,18.7457143 30.4371429,19.1542857 29.9297959,19.1542857 L20.0746939,19.1542857 Z M23.3612245,15.8318367 C22.8538776,15.8318367 22.4453061,15.4232653 22.4453061,14.9159184 C22.4453061,14.4085714 22.8538776,14 23.3612245,14 L26.6432653,14 C27.1506122,14 27.5591837,14.4085714 27.5591837,14.9159184 C27.5591837,15.4232653 27.1506122,15.8318367 26.6432653,15.8318367 L23.3612245,15.8318367 Z" id="Combined-Shape"></path>
                        </g>
                    </g>
                </g>
            </g>
        </g>
    </g>
</svg>