<?xml version="1.0" encoding="UTF-8"?>
<svg width="70px" height="70px" viewBox="0 0 70 70" version="1.1" xmlns="http://www.w3.org/2000/svg" xmlns:xlink="http://www.w3.org/1999/xlink">
    <!-- Generator: Sketch 52.3 (67297) - http://www.bohemiancoding.com/sketch -->
    <title>phone-rounded</title>
    <desc>Created with Sketch.</desc>
    <defs>
        <linearGradient x1="48.34944%" y1="1.65055997%" x2="48.34944%" y2="98.34944%" id="linearGradient-1">
            <stop stop-color="#9EC71C" offset="0%"></stop>
            <stop stop-color="#82A514" offset="100%"></stop>
        </linearGradient>
    </defs>
    <g id="00-Screens" stroke="none" stroke-width="1" fill="none" fill-rule="evenodd">
        <g id="03-Desktop-v4" transform="translate(-1761.000000, -591.000000)">
            <g id="Group-58" transform="translate(1761.000000, 591.000000)">
                <path d="M35,1 C16.2223185,1 1,16.2223185 1,35 C1,53.7776815 16.2223185,69 35,69 C53.7776815,69 69,53.7776815 69,35 C69,16.2223185 53.7776815,1 35,1 Z" id="Rectangle-5-Copy-6" stroke-opacity="0.24" stroke="#FFFFFF" stroke-width="2" fill="url(#linearGradient-1)"></path>
                <g id="baseline-phone-24px" transform="translate(17.000000, 17.000000)">
                    <polygon id="Path" points="0 0 36 0 36 36 0 36"></polygon>
                    <path d="M9.93,16.185 C12.09,20.43 15.57,23.895 19.815,26.07 L23.115,22.77 C23.52,22.365 24.12,22.23 24.645,22.41 C26.325,22.965 28.14,23.265 30,23.265 C30.825,23.265 31.5,23.94 31.5,24.765 L31.5,30 C31.5,30.825 30.825,31.5 30,31.5 C15.915,31.5 4.5,20.085 4.5,6 C4.5,5.175 5.175,4.5 6,4.5 L11.25,4.5 C12.075,4.5 12.75,5.175 12.75,6 C12.75,7.875 13.05,9.675 13.605,11.355 C13.77,11.88 13.65,12.465 13.23,12.885 L9.93,16.185 Z" id="Path" fill="#FFFFFF"></path>
                </g>
            </g>
        </g>
    </g>
</svg>