<?xml version="1.0" encoding="utf-8"?><svg width="65" height="40" viewBox="0 0 65 40" xmlns="http://www.w3.org/2000/svg" xmlns:xlink="http://www.w3.org/1999/xlink"><view id="image-arrow-white-down-45" viewBox="40 0 25 24"/><svg width="25" height="24" fill="none" viewBox="-1 -1 25 24" x="40" xmlns="http://www.w3.org/2000/svg"><path d="M.642 1.476c0 .13.022.26.079.388a.992.992 0 00.21.299l17.385 17.384H3.046a.975.975 0 00-.698.278.975.975 0 00-.277.699c0 .256.087.509.277.698.19.19.442.278.699.278h17.619c.256 0 .509-.088.699-.277a.975.975 0 00.277-.7V2.906a.975.975 0 00-.277-.7.975.975 0 00-.7-.277.975.975 0 00-.698.278.975.975 0 00-.277.699v15.269L2.305.789a.96.96 0 00-1.374 0l.354.354L.931.789a.992.992 0 00-.21.3.942.942 0 00-.079.387z" fill="#fff" stroke="#fff"/></svg><view id="image-intro-arrow-up-45-white" viewBox="0 0 40 40"/><svg width="40" height="40" fill="none" viewBox="-1 -1 40 40" xmlns="http://www.w3.org/2000/svg"><path d="M1.857 37.5c.187 0 .365-.032.535-.108.168-.074.303-.18.419-.296L34.786 5.121v28.45c0 .371.125.719.382.975.256.257.604.383.975.383.37 0 .718-.126.975-.383.256-.256.382-.604.382-.975V1.857c0-.37-.126-.719-.382-.975A1.356 1.356 0 0036.143.5H4.429c-.371 0-.719.126-.975.382a1.356 1.356 0 00-.383.975c0 .37.126.719.383.975.256.256.604.382.975.382h28.45L.904 35.19a1.328 1.328 0 000 1.907c.115.116.25.222.418.297.17.075.348.107.535.107z" fill="#fff" stroke="#fff"/></svg></svg>