<?xml version="1.0" encoding="utf-8"?><svg viewBox="0 0 30 30" xmlns="http://www.w3.org/2000/svg" xmlns:xlink="http://www.w3.org/1999/xlink"><style>:root>svg{display:none}:root>svg:target{display:block}</style><svg fill="none" viewBox="-1 -1 30 30" id="image-arrow-white-up-45" xmlns="http://www.w3.org/2000/svg"><path d="M1.619 27.5c.151 0 .3-.026.443-.09a1.14 1.14 0 00.344-.242L25.262 4.312v20.212c0 .3.102.587.317.802.214.215.503.317.802.317.3 0 .588-.102.802-.317.215-.215.317-.503.317-.802V1.619c0-.3-.102-.588-.317-.802A1.118 1.118 0 0026.381.5H3.476c-.3 0-.587.102-.802.317a1.118 1.118 0 00-.317.802c0 .3.102.588.317.802.215.215.503.317.802.317h20.212L.832 25.594a1.098 1.098 0 000 1.574c.092.091.203.18.344.242.143.064.292.09.443.09z" fill="#fff" stroke="#fff"/></svg></svg>